<svg xmlns="http://www.w3.org/2000/svg" viewBox="0 0 138.67 88.59"><defs><style>.cls-1{fill:#fff;}</style></defs><title>cercle</title><g id="Tracé_cercle"><path class="cls-1" d="M114.4,16.11c-19.21-14.59-46.72-10.43-68-3.25C28.46,18.91.14,31,3.22,54.38c2.89,21.95,25.15,31.92,45,31.51,12.85-.26,25.65-3.47,37.83-7.35,12-3.81,24.57-8.47,35.24-15.2,9-5.69,13.25-14.94,8.53-25.09-5.37-11.55-18.19-15.83-29.46-19.34-.92-.29-1.32,1.16-.4,1.45,10,3.12,21.35,6.65,27.19,16.1,2.85,4.61,4.22,10.39,2.41,15.64-1.93,5.59-7.24,9.09-12.19,11.77C98.33,74.18,75.92,82,54.23,84,34.12,85.9,10.3,79,5.17,56.77-.18,33.55,27.5,21.11,45.11,14.89c21.3-7.53,49.18-12.17,68.53,2.52.77.58,1.52-.72.76-1.3Z"/></g></svg>